<?xml version="1.0" encoding="utf-8"?>
<!-- Generator: Adobe Illustrator 16.0.0, SVG Export Plug-In . SVG Version: 6.00 Build 0)  -->
<!DOCTYPE svg PUBLIC "-//W3C//DTD SVG 1.1//EN" "http://www.w3.org/Graphics/SVG/1.1/DTD/svg11.dtd">
<svg version="1.1" id="Layer_1" xmlns="http://www.w3.org/2000/svg" xmlns:xlink="http://www.w3.org/1999/xlink" x="0px" y="0px"
	 width="360px" height="258.5px" viewBox="0 0 360 258.5" enable-background="new 0 0 360 258.5" xml:space="preserve">
<path fill="#FFC415" d="M353.427,79.237c-14.303-21.991-28.659-43.954-43.091-65.867c-6.098-9.261-11.387-9.605-18.62-1.179
	c-18.577,21.647-37.165,43.282-55.435,65.187c-3.014,3.617-7.358,8.71-6.799,13.395c0.559,4.686,3.188,9.236,5.807,12.69
	c16.327,21.583,32.959,42.936,49.545,64.317c5.539,7.137,12.455,7.079,17.994-0.146c16.805-21.938,33.58-43.911,50.304-65.92
	C358.908,94.114,358.995,87.798,353.427,79.237z M258.396,98.909c-4.568-0.189-7.896-4.442-8.019-10.262
	c-0.144-6.677,4.306-13.056,9.114-13.094c5.771-0.049,9.419,4.479,9.419,11.667C268.922,93.644,263.975,99.138,258.396,98.909z
	 M297.255,31.177c4.751-0.188,8.287,4.198,8.349,10.354c0.067,6.763-3.515,12.034-8.223,12.113
	c-5.424,0.097-8.604-4.108-8.624-11.418C288.742,35.883,292.206,31.378,297.255,31.177z M296.299,149.048
	c-4.596,0.193-7.357-3.428-7.3-9.575c0.065-6.916,4.049-12.623,8.688-12.438c5.049,0.201,7.963,4.111,7.951,10.671
	C305.624,143.841,301.518,148.829,296.299,149.048z M339.794,93.042c-0.441,6.918-3.728,11.274-8.409,11.133
	c-4.939-0.145-7.729-4.676-7.188-11.675c0.433-5.472,4.313-9.723,8.771-9.59C337.234,83.035,340.157,87.378,339.794,93.042z
	 M230.357,101.737c-4.123-5.083-11.312-10.669-17.334-10.699c-16.147-0.079-47.647-2.079-49,0.357
	c-1.525,1.156,4.961,10.931,4.961,10.931c10.571,13.702,27.704,37.855,43.823,56.105c4.074,4.611,10.688,8.188,16.75,9.623
	c15.732,3.713,31.801,6.047,47.773,8.721c2.357,0.396,6.62,1.322,7.363-0.571c0.746-1.894-0.967-5.347-2.426-7.276
	C265.164,146.379,248.205,123.698,230.357,101.737z M216.77,105.258c6.188-0.01,20.951,13.917,15.107,13.691
	C223.688,118.849,212.82,105.265,216.77,105.258z M193.594,118.458c-7.834-0.235-17.232-12.137-14.615-12.387
	C186.091,105.7,198.93,118.476,193.594,118.458z M195.361,106.089c9.007-0.047,20.818,12.698,15.763,12.656
	C202.627,118.538,191.5,106.104,195.361,106.089z M224.001,156.225c-6.299,0.021-21.035-11.271-13.667-12.048
	C217.702,143.405,230.3,156.207,224.001,156.225z M242.746,158.579c-7.258,0.805-19.389-11.94-15.098-12.231
	C236.07,145.923,248.241,157.643,242.746,158.579z M265.27,161.25c-8.994-0.095-20.396-13.152-15.619-12.989
	C257.546,148.529,270.077,161.312,265.27,161.25z M220.131,87.796c2.276-0.741,8.693-5.866,12.266-9.977
	c19.901-22.926,39.408-46.192,58.955-69.428c0,0,5.834-5.631,2.528-5.384c-3.307,0.248-28.979,0.779-43.054,1.579
	c-8.088,0.458-14.482,4.102-19.749,9.487c-20.835,21.297-61.061,63.554-61.92,64.464c-5.138,6.522-4.485,8.232-3.978,9.294
	C165.686,88.893,217.855,88.538,220.131,87.796z M235.057,19.613c4.543-3.389,9.336-4.65,10.705-2.816
	c1.368,1.833-1.207,6.069-5.755,9.46c-4.546,3.391-9.337,4.65-10.706,2.816C227.934,27.241,230.509,23.005,235.057,19.613z
	 M220.223,65.538c4.543-3.389,9.336-4.65,10.704-2.816c1.369,1.833-1.206,6.069-5.754,9.46c-4.546,3.391-9.337,4.65-10.706,2.816
	C213.1,73.166,215.675,68.93,220.223,65.538z M32.941,105.295C33.343,106.626,33.295,106.362,32.941,105.295L32.941,105.295z
	 M160.636,184.586c-27.738,4.264-55.424,8.836-83.142,13.214c-11.161,1.763-19.485,6.675-24.62,17.499
	c-6.128,12.916-18.054,34.855-18.397,35.786c-0.343,0.933-0.543,1.33,0,2.507c0.642,1.695,6.69,1.61,10.791,0.749
	c25.012-5.254,49.984-9.707,74.889-15.433c7.142-1.643,13.417-5.141,18.236-11.192c9.083-11.405,18.655-22.422,27.798-33.778
	c2.028-2.513,4.964-6.877,4.653-8.687C170.534,183.441,163.926,184.08,160.636,184.586z M91.803,224.938
	c-1.069-5.271,18.17-11.955,19.256-7.746C112.144,221.398,92.874,230.216,91.803,224.938z M141.981,96.414
	c-2.93-6.293-8.075-10.422-14.106-10.585c-6.031-0.163-58.526,0.186-80.196,0.288c-12.043,0.056-15.196,4.421-11.926,16.053
	c7.366,26.197,14.691,52.406,22.062,78.604c3.051,10.847,11.891,16.104,22.877,14.172c28.232-4.967,56.479-9.807,84.743-14.59
	c10.192-1.725,13.005-6.291,8.674-15.605C163.497,141.921,152.617,119.226,141.981,96.414z M55.981,104.079
	c0.036-5.583,4.086-6.563,7.988-6.938c7.051,0.043,13.77,5.178,13.479,10.251c-0.291,4.996-4.04,6.485-8.272,6.684
	C62.864,114.37,55.951,109.092,55.981,104.079z M88.034,175.812c-6.841-0.338-13.097-6.074-13.021-11.943
	c0.072-5.369,4.56-9.055,10.667-8.764c6.796,0.326,12.842,6.146,12.684,12.226C98.232,172.417,93.749,176.098,88.034,175.812z
	 M108.471,141.438c-6.453,0.008-12.877-5.959-12.388-11.459c0.453-5.104,3.984-6.336,8.359-6.208
	c6.459,0.198,12.348,5.576,12.139,11.604C116.118,139.72,112.893,141.434,108.471,141.438z M122.948,111.644
	c-5.644-0.064-12.449-5.431-11.608-9.877c0.109-1.759,1.128-4.557,4.269-5.538c4.134-0.777,8.789,1.554,11.603,4.527
	c1.678,1.647,2.653,3.544,2.569,5.346C129.593,110.222,126.693,111.685,122.948,111.644z M148.67,167.607
	c-7.225,0.851-14.953-6.033-14.942-11.66c0.01-4.971,2.918-7.035,7.602-7.012c6.117,0.024,12.455,6.188,12.174,11.722
	C153.352,163.641,152.886,166.126,148.67,167.607z M54.025,183.593l-21.086-78.304c0,0.002,0.001,0.004,0.002,0.006
	c-0.001-0.005-0.003-0.009-0.004-0.014l-0.01-0.032l0,0c-0.819-2.494-2.918-12.536-5.476-11.337
	c-0.92,0.431-3.698,6.219-3.698,6.219c-6.332,12.855-13.47,28.806-19.91,41.611c-3.417,6.801-3.138,13.753-1.084,20.583
	c7.773,25.854,15.786,51.636,23.865,77.397c0.775,2.467,2.615,8.498,4.82,8.31c3.203-1.212,20.87-40.397,20.87-40.397
	C56.568,199.744,56.283,191.604,54.025,183.593z M12.391,166.062c-2.174,0.246-4.451-4.071-5.086-9.65
	c-0.635-5.575,0.613-10.297,2.787-10.545c2.174-0.247,4.452,4.072,5.087,9.65C15.813,161.096,14.565,165.814,12.391,166.062z
	 M29.681,223.432c-4.693-0.115-6.651-18.324-2.649-19.529C33.147,203.902,34.499,222.312,29.681,223.432z M30.007,141.969
	c-4.6,0.59-7.639-17.152-2.624-20.476C32.937,120.465,34.607,141.379,30.007,141.969z M46.549,199.212
	c-3.777,4.172-9.358-14.19-4.902-19.726C46.103,173.952,52.327,193.561,46.549,199.212z"/>
<path fill="#FDD77A" d="M220.131,87.796c2.276-0.741,8.693-5.866,12.266-9.977c19.901-22.926,39.408-46.192,58.955-69.428
	c0,0,5.834-5.631,2.528-5.384c-3.307,0.248-28.979,0.779-43.054,1.579c-8.088,0.458-14.482,4.102-19.749,9.487
	c-20.835,21.297-61.061,63.554-61.92,64.464c-5.138,6.522-4.485,8.232-3.978,9.294C165.686,88.893,217.855,88.538,220.131,87.796z
	 M235.057,19.613c4.543-3.389,9.336-4.65,10.705-2.816c1.368,1.833-1.207,6.069-5.755,9.46c-4.546,3.391-9.337,4.65-10.706,2.816
	C227.934,27.241,230.509,23.005,235.057,19.613z M220.223,65.538c4.543-3.389,9.336-4.65,10.704-2.816
	c1.369,1.833-1.206,6.069-5.754,9.46c-4.546,3.391-9.337,4.65-10.706,2.816C213.1,73.166,215.675,68.93,220.223,65.538z
	 M32.941,105.295C33.343,106.626,33.295,106.362,32.941,105.295L32.941,105.295z M141.981,96.414
	c-2.93-6.293-8.075-10.422-14.106-10.585c-6.031-0.163-58.526,0.186-80.196,0.288c-12.043,0.056-15.196,4.421-11.926,16.053
	c7.366,26.197,14.691,52.406,22.062,78.604c3.051,10.847,11.891,16.104,22.877,14.172c28.232-4.967,56.479-9.807,84.743-14.59
	c10.192-1.725,13.005-6.291,8.674-15.605C163.497,141.921,152.617,119.226,141.981,96.414z M55.981,104.079
	c0.036-5.583,4.086-6.563,7.988-6.938c7.051,0.043,13.77,5.178,13.479,10.251c-0.291,4.996-4.04,6.485-8.272,6.684
	C62.864,114.37,55.951,109.092,55.981,104.079z M88.034,175.812c-6.841-0.338-13.097-6.074-13.021-11.943
	c0.072-5.369,4.56-9.055,10.667-8.764c6.796,0.326,12.842,6.146,12.684,12.226C98.232,172.417,93.749,176.098,88.034,175.812z
	 M108.471,141.438c-6.453,0.008-12.877-5.959-12.388-11.459c0.453-5.104,3.984-6.336,8.359-6.208
	c6.459,0.198,12.348,5.576,12.139,11.604C116.118,139.72,112.893,141.434,108.471,141.438z M122.948,111.644
	c-5.644-0.064-12.449-5.431-11.608-9.877c0.109-1.759,1.128-4.557,4.269-5.538c4.134-0.777,8.789,1.554,11.603,4.527
	c1.678,1.647,2.653,3.544,2.569,5.346C129.593,110.222,126.693,111.685,122.948,111.644z M148.67,167.607
	c-7.225,0.851-14.953-6.033-14.942-11.66c0.01-4.971,2.918-7.035,7.602-7.012c6.117,0.024,12.455,6.188,12.174,11.722
	C153.352,163.641,152.886,166.126,148.67,167.607z"/>
<path fill="#E49326" d="M230.357,101.737c-4.123-5.083-11.312-10.669-17.334-10.699c-16.147-0.079-47.647-2.079-49,0.357
	c-1.525,1.156,4.961,10.931,4.961,10.931c10.571,13.702,27.704,37.855,43.823,56.105c4.074,4.611,10.688,8.188,16.75,9.623
	c15.732,3.713,31.801,6.047,47.773,8.721c2.357,0.396,6.62,1.322,7.363-0.571c0.746-1.894-0.967-5.347-2.426-7.276
	C265.164,146.379,248.205,123.698,230.357,101.737z M216.77,105.258c6.188-0.01,20.951,13.917,15.107,13.691
	C223.688,118.849,212.82,105.265,216.77,105.258z M193.594,118.458c-7.834-0.235-17.232-12.137-14.615-12.387
	C186.091,105.7,198.93,118.476,193.594,118.458z M195.361,106.089c9.007-0.047,20.818,12.698,15.763,12.656
	C202.627,118.538,191.5,106.104,195.361,106.089z M224.001,156.225c-6.299,0.021-21.035-11.271-13.667-12.048
	C217.702,143.405,230.3,156.207,224.001,156.225z M242.746,158.579c-7.258,0.805-19.389-11.94-15.098-12.231
	C236.07,145.923,248.241,157.643,242.746,158.579z M265.27,161.25c-8.994-0.095-20.396-13.152-15.619-12.989
	C257.546,148.529,270.077,161.312,265.27,161.25z M160.636,184.586c-27.738,4.264-55.424,8.836-83.142,13.214
	c-11.161,1.763-19.485,6.675-24.62,17.499c-6.128,12.916-18.054,34.855-18.397,35.786c-0.343,0.933-0.543,1.33,0,2.507
	c0.642,1.695,6.69,1.61,10.791,0.749c25.012-5.254,49.984-9.707,74.889-15.433c7.142-1.643,13.417-5.141,18.236-11.192
	c9.083-11.405,18.655-22.422,27.798-33.778c2.028-2.513,4.964-6.877,4.653-8.687C170.534,183.441,163.926,184.08,160.636,184.586z
	 M91.803,224.938c-1.069-5.271,18.17-11.955,19.256-7.746C112.144,221.398,92.874,230.216,91.803,224.938z"/>
</svg>
